<svg xmlns="http://www.w3.org/2000/svg" viewBox="0 0 1400 1500" font-family="'SF Mono', 'Fira Code', 'Consolas', monospace" font-size="12">
  <defs>
    <marker id="arrow" viewBox="0 0 10 10" refX="9" refY="5" markerWidth="8" markerHeight="6" orient="auto-start-auto">
      <path d="M 0 0 L 10 5 L 0 10 z" fill="#555"/>
    </marker>
    <marker id="arrow-green" viewBox="0 0 10 10" refX="9" refY="5" markerWidth="8" markerHeight="6" orient="auto-start-auto">
      <path d="M 0 0 L 10 5 L 0 10 z" fill="#00b894"/>
    </marker>
    <marker id="arrow-blue" viewBox="0 0 10 10" refX="9" refY="5" markerWidth="8" markerHeight="6" orient="auto-start-auto">
      <path d="M 0 0 L 10 5 L 0 10 z" fill="#0984e3"/>
    </marker>
    <marker id="arrow-orange" viewBox="0 0 10 10" refX="9" refY="5" markerWidth="8" markerHeight="6" orient="auto-start-auto">
      <path d="M 0 0 L 10 5 L 0 10 z" fill="#e17055"/>
    </marker>
    <marker id="arrow-red" viewBox="0 0 10 10" refX="9" refY="5" markerWidth="8" markerHeight="6" orient="auto-start-auto">
      <path d="M 0 0 L 10 5 L 0 10 z" fill="#d63031"/>
    </marker>
    <filter id="shadow">
      <feDropShadow dx="2" dy="2" stdDeviation="3" flood-opacity="0.12"/>
    </filter>
  </defs>

  <!-- Background -->
  <rect width="1400" height="1500" fill="#fafafa"/>

  <!-- ============================================================ -->
  <!-- TITLE -->
  <!-- ============================================================ -->
  <rect x="0" y="0" width="1400" height="70" fill="#2d3436"/>
  <text x="700" y="30" text-anchor="middle" fill="#dfe6e9" font-size="24" font-weight="bold">PINWHEEL FATES</text>
  <text x="700" y="52" text-anchor="middle" fill="#b2bec3" font-size="13">You govern a basketball league. The simulation runs itself. Your power lives in the rules.</text>

  <!-- ============================================================ -->
  <!-- THE CORE LOOP -->
  <!-- ============================================================ -->
  <rect x="50" y="90" width="1300" height="30" rx="4" fill="#2d3436"/>
  <text x="70" y="110" fill="white" font-size="13" font-weight="bold">THE CORE LOOP</text>

  <!-- Four pillars in a row -->
  <rect x="70" y="140" width="270" height="80" rx="10" fill="white" stroke="#e17055" stroke-width="3" filter="url(#shadow)"/>
  <text x="205" y="168" text-anchor="middle" fill="#e17055" font-size="16" font-weight="bold">GOVERN</text>
  <text x="205" y="186" text-anchor="middle" fill="#636e72" font-size="10">Propose and vote on rules</text>
  <text x="205" y="200" text-anchor="middle" fill="#636e72" font-size="10">that change the game</text>

  <line x1="340" y1="180" x2="380" y2="180" stroke="#555" stroke-width="2" marker-end="url(#arrow)"/>

  <rect x="380" y="140" width="270" height="80" rx="10" fill="white" stroke="#0984e3" stroke-width="3" filter="url(#shadow)"/>
  <text x="515" y="168" text-anchor="middle" fill="#0984e3" font-size="16" font-weight="bold">SIMULATE</text>
  <text x="515" y="186" text-anchor="middle" fill="#636e72" font-size="10">Games run automatically</text>
  <text x="515" y="200" text-anchor="middle" fill="#636e72" font-size="10">under whatever rules exist</text>

  <line x1="650" y1="180" x2="690" y2="180" stroke="#555" stroke-width="2" marker-end="url(#arrow)"/>

  <rect x="690" y="140" width="270" height="80" rx="10" fill="white" stroke="#fdcb6e" stroke-width="3" filter="url(#shadow)"/>
  <text x="825" y="168" text-anchor="middle" fill="#e17055" font-size="16" font-weight="bold">OBSERVE</text>
  <text x="825" y="186" text-anchor="middle" fill="#636e72" font-size="10">Watch results, commentary,</text>
  <text x="825" y="200" text-anchor="middle" fill="#636e72" font-size="10">and standings unfold</text>

  <line x1="960" y1="180" x2="1000" y2="180" stroke="#555" stroke-width="2" marker-end="url(#arrow)"/>

  <rect x="1000" y="140" width="300" height="80" rx="10" fill="white" stroke="#6c5ce7" stroke-width="3" filter="url(#shadow)"/>
  <text x="1150" y="168" text-anchor="middle" fill="#6c5ce7" font-size="16" font-weight="bold">REFLECT</text>
  <text x="1150" y="186" text-anchor="middle" fill="#636e72" font-size="10">AI reports surface patterns</text>
  <text x="1150" y="200" text-anchor="middle" fill="#636e72" font-size="10">you might not see</text>

  <!-- Loop-back arrow from REFLECT to GOVERN -->
  <path d="M 1150 220 Q 1150 248 700 248 Q 205 248 205 220" fill="none" stroke="#555" stroke-width="1.5" stroke-dasharray="6,3" marker-end="url(#arrow)"/>
  <text x="700" y="264" text-anchor="middle" fill="#636e72" font-size="10" font-style="italic">Reflections inform your next governance decisions</text>

  <!-- ============================================================ -->
  <!-- JOINING -->
  <!-- ============================================================ -->
  <rect x="50" y="290" width="1300" height="30" rx="4" fill="#2d3436"/>
  <text x="70" y="310" fill="white" font-size="13" font-weight="bold">JOINING</text>

  <rect x="70" y="335" width="150" height="55" rx="8" fill="#e17055" filter="url(#shadow)"/>
  <text x="145" y="358" text-anchor="middle" fill="white" font-size="13" font-weight="bold">/join TEAM</text>
  <text x="145" y="376" text-anchor="middle" fill="#dfe6e9" font-size="10">Pick your team</text>

  <line x1="220" y1="362" x2="270" y2="362" stroke="#e17055" stroke-width="2" marker-end="url(#arrow-orange)"/>

  <rect x="270" y="335" width="200" height="55" rx="8" fill="#00b894" filter="url(#shadow)"/>
  <text x="370" y="358" text-anchor="middle" fill="white" font-size="11" font-weight="bold">Locked to that team</text>
  <text x="370" y="376" text-anchor="middle" fill="#dfe6e9" font-size="10">for the season</text>

  <line x1="470" y1="362" x2="520" y2="362" stroke="#00b894" stroke-width="2" marker-end="url(#arrow-green)"/>

  <rect x="520" y="335" width="260" height="55" rx="8" fill="#d63031" filter="url(#shadow)"/>
  <text x="650" y="358" text-anchor="middle" fill="white" font-size="11" font-weight="bold">Receive 6 tokens</text>
  <text x="650" y="376" text-anchor="middle" fill="#fab1a0" font-size="10">2 PROPOSE + 2 AMEND + 2 BOOST</text>

  <line x1="780" y1="362" x2="830" y2="362" stroke="#555" stroke-width="2" marker-end="url(#arrow)"/>

  <rect x="830" y="335" width="270" height="55" rx="8" fill="white" stroke="#636e72" filter="url(#shadow)"/>
  <text x="965" y="355" text-anchor="middle" fill="#333" font-size="11" font-weight="bold">You are now a Governor</text>
  <text x="965" y="373" text-anchor="middle" fill="#636e72" font-size="10">Propose, vote, trade, strategize</text>

  <!-- ============================================================ -->
  <!-- SEASONS -->
  <!-- ============================================================ -->
  <rect x="50" y="410" width="1300" height="30" rx="4" fill="#2d3436"/>
  <text x="70" y="430" fill="white" font-size="13" font-weight="bold">SEASONS</text>

  <rect x="70" y="455" width="200" height="65" rx="8" fill="#0984e3" filter="url(#shadow)"/>
  <text x="170" y="478" text-anchor="middle" fill="white" font-size="11" font-weight="bold">Round-Robin</text>
  <text x="170" y="496" text-anchor="middle" fill="#dfe6e9" font-size="10">4 teams play each other</text>
  <text x="170" y="510" text-anchor="middle" fill="#dfe6e9" font-size="9">Games auto-simulate on timer</text>

  <line x1="270" y1="487" x2="310" y2="487" stroke="#0984e3" stroke-width="2" marker-end="url(#arrow-blue)"/>

  <rect x="310" y="455" width="220" height="65" rx="8" fill="#d63031" filter="url(#shadow)"/>
  <text x="420" y="478" text-anchor="middle" fill="white" font-size="11" font-weight="bold">Governance Tally</text>
  <text x="420" y="496" text-anchor="middle" fill="#dfe6e9" font-size="10">Every 3 rounds: votes resolve,</text>
  <text x="420" y="510" text-anchor="middle" fill="#dfe6e9" font-size="9">tokens regenerate, rules change</text>

  <line x1="530" y1="487" x2="570" y2="487" stroke="#555" stroke-width="2" marker-end="url(#arrow)"/>

  <rect x="570" y="455" width="180" height="65" rx="8" fill="white" stroke="#0984e3" stroke-width="2" filter="url(#shadow)"/>
  <text x="660" y="478" text-anchor="middle" fill="#333" font-size="11" font-weight="bold">Playoffs</text>
  <text x="660" y="496" text-anchor="middle" fill="#636e72" font-size="10">#1 vs #4, #2 vs #3</text>
  <text x="660" y="510" text-anchor="middle" fill="#636e72" font-size="9">Then finals</text>

  <line x1="750" y1="487" x2="790" y2="487" stroke="#555" stroke-width="2" marker-end="url(#arrow)"/>

  <rect x="790" y="455" width="170" height="65" rx="8" fill="#fdcb6e" filter="url(#shadow)"/>
  <text x="875" y="478" text-anchor="middle" fill="#2d3436" font-size="14" font-weight="bold">CHAMPION</text>
  <text x="875" y="496" text-anchor="middle" fill="#636e72" font-size="10">Season archived</text>

  <line x1="960" y1="487" x2="1000" y2="487" stroke="#555" stroke-width="2" marker-end="url(#arrow)"/>

  <rect x="1000" y="455" width="200" height="65" rx="8" fill="#0984e3" filter="url(#shadow)"/>
  <text x="1100" y="478" text-anchor="middle" fill="white" font-size="11" font-weight="bold">New Season</text>
  <text x="1100" y="496" text-anchor="middle" fill="#dfe6e9" font-size="10">Fresh standings</text>
  <text x="1100" y="510" text-anchor="middle" fill="#dfe6e9" font-size="9">Can inherit previous rules</text>

  <!-- ============================================================ -->
  <!-- GOVERNANCE: PROPOSE -> VOTE -> ENACT -->
  <!-- ============================================================ -->
  <rect x="50" y="545" width="1300" height="30" rx="4" fill="#2d3436"/>
  <text x="70" y="565" fill="white" font-size="13" font-weight="bold">GOVERNANCE: HOW RULES CHANGE</text>

  <!-- Main flow -->
  <rect x="70" y="595" width="140" height="55" rx="8" fill="#e17055" filter="url(#shadow)"/>
  <text x="140" y="618" text-anchor="middle" fill="white" font-size="12" font-weight="bold">/propose</text>
  <text x="140" y="636" text-anchor="middle" fill="#dfe6e9" font-size="9">Write a rule in English</text>

  <line x1="210" y1="622" x2="245" y2="622" stroke="#555" stroke-width="2" marker-end="url(#arrow)"/>

  <rect x="245" y="595" width="170" height="55" rx="8" fill="#6c5ce7" filter="url(#shadow)"/>
  <text x="330" y="618" text-anchor="middle" fill="white" font-size="11" font-weight="bold">AI Interprets</text>
  <text x="330" y="636" text-anchor="middle" fill="#dfe6e9" font-size="9">Text becomes parameters</text>

  <line x1="415" y1="622" x2="450" y2="622" stroke="#555" stroke-width="2" marker-end="url(#arrow)"/>

  <rect x="450" y="595" width="140" height="55" rx="8" fill="#fdcb6e" filter="url(#shadow)"/>
  <text x="520" y="618" text-anchor="middle" fill="#2d3436" font-size="11" font-weight="bold">You Confirm</text>
  <text x="520" y="636" text-anchor="middle" fill="#636e72" font-size="9">or cancel (free)</text>

  <line x1="590" y1="622" x2="625" y2="622" stroke="#555" stroke-width="2" marker-end="url(#arrow)"/>

  <rect x="625" y="590" width="190" height="65" rx="8" fill="#00cec9" filter="url(#shadow)"/>
  <text x="720" y="613" text-anchor="middle" fill="white" font-size="12" font-weight="bold">ON THE FLOOR</text>
  <text x="720" y="631" text-anchor="middle" fill="#dfe6e9" font-size="10">Voting opens immediately</text>
  <text x="720" y="647" text-anchor="middle" fill="#dfe6e9" font-size="9">All proposals go to vote</text>

  <line x1="815" y1="622" x2="855" y2="622" stroke="#555" stroke-width="2" marker-end="url(#arrow)"/>

  <rect x="855" y="595" width="160" height="55" rx="8" fill="#0984e3" filter="url(#shadow)"/>
  <text x="935" y="618" text-anchor="middle" fill="white" font-size="11" font-weight="bold">Tally (every 3 rds)</text>
  <text x="935" y="636" text-anchor="middle" fill="#dfe6e9" font-size="9">Votes counted at threshold</text>

  <line x1="1015" y1="622" x2="1050" y2="622" stroke="#555" stroke-width="2" marker-end="url(#arrow)"/>

  <!-- Pass/Fail diamond -->
  <polygon points="1120,597 1175,622 1120,647 1065,622" fill="#ffeaa7" stroke="#fdcb6e" stroke-width="2"/>
  <text x="1120" y="626" text-anchor="middle" fill="#2d3436" font-size="10" font-weight="bold">Pass?</text>

  <!-- Yes: Enact -->
  <line x1="1175" y1="622" x2="1210" y2="622" stroke="#00b894" stroke-width="2" marker-end="url(#arrow-green)"/>
  <rect x="1210" y="597" width="140" height="50" rx="8" fill="#00b894" filter="url(#shadow)"/>
  <text x="1280" y="618" text-anchor="middle" fill="white" font-size="11" font-weight="bold">Rules Change</text>
  <text x="1280" y="636" text-anchor="middle" fill="#dfe6e9" font-size="9">Takes effect now</text>

  <!-- No: Fail -->
  <line x1="1120" y1="647" x2="1120" y2="672" stroke="#d63031" stroke-width="1.5"/>
  <rect x="1055" y="672" width="130" height="25" rx="4" fill="#fab1a0" stroke="#d63031"/>
  <text x="1120" y="689" text-anchor="middle" fill="#d63031" font-size="10">Failed. Nothing changes.</text>

  <!-- Wild proposal sidebar -->
  <rect x="70" y="680" width="700" height="65" rx="8" fill="white" stroke="#e17055" stroke-width="2" stroke-dasharray="6,3" filter="url(#shadow)"/>
  <text x="90" y="702" fill="#e17055" font-size="11" font-weight="bold">Wild Proposals (Tier 5 or low AI confidence)</text>
  <text x="90" y="720" fill="#636e72" font-size="10">Go to vote immediately like any other proposal. Admin also gets a DM and can veto before tally.</text>
  <text x="90" y="735" fill="#636e72" font-size="10">If admin vetoes: proposal removed, tokens refunded. If admin does nothing: the democratic process continues.</text>

  <!-- ============================================================ -->
  <!-- VOTING -->
  <!-- ============================================================ -->
  <rect x="50" y="770" width="1300" height="30" rx="4" fill="#2d3436"/>
  <text x="70" y="790" fill="white" font-size="13" font-weight="bold">VOTING</text>

  <rect x="70" y="815" width="140" height="50" rx="8" fill="#e17055" filter="url(#shadow)"/>
  <text x="140" y="838" text-anchor="middle" fill="white" font-size="12" font-weight="bold">/vote YES</text>
  <text x="140" y="855" text-anchor="middle" fill="#dfe6e9" font-size="9">or NO</text>

  <line x1="210" y1="840" x2="250" y2="840" stroke="#555" stroke-width="2" marker-end="url(#arrow)"/>

  <rect x="250" y="815" width="230" height="50" rx="8" fill="white" stroke="#636e72" filter="url(#shadow)"/>
  <text x="365" y="835" text-anchor="middle" fill="#333" font-size="11" font-weight="bold">Weight = 1.0 / team size</text>
  <text x="365" y="852" text-anchor="middle" fill="#636e72" font-size="10">3 governors on your team? You get 0.33</text>

  <line x1="480" y1="840" x2="520" y2="840" stroke="#555" stroke-width="2" marker-end="url(#arrow)"/>

  <rect x="520" y="815" width="200" height="50" rx="8" fill="#d63031" filter="url(#shadow)"/>
  <text x="620" y="835" text-anchor="middle" fill="white" font-size="11" font-weight="bold">BOOST? (optional)</text>
  <text x="620" y="852" text-anchor="middle" fill="#dfe6e9" font-size="10">Spend 1 BOOST to double weight</text>

  <line x1="720" y1="840" x2="760" y2="840" stroke="#555" stroke-width="2" marker-end="url(#arrow)"/>

  <rect x="760" y="815" width="220" height="50" rx="8" fill="#fdcb6e" filter="url(#shadow)"/>
  <text x="870" y="835" text-anchor="middle" fill="#2d3436" font-size="11" font-weight="bold">Vote recorded (hidden)</text>
  <text x="870" y="852" text-anchor="middle" fill="#636e72" font-size="10">Revealed at next governance tally</text>

  <!-- Threshold table -->
  <rect x="70" y="885" width="600" height="85" rx="8" fill="white" stroke="#636e72" filter="url(#shadow)"/>
  <text x="90" y="905" fill="#333" font-size="11" font-weight="bold">Vote Thresholds</text>
  <rect x="80" y="912" width="580" height="18" rx="2" fill="#2d3436"/>
  <text x="95" y="925" fill="white" font-size="9" font-weight="bold">Tier</text>
  <text x="180" y="925" fill="white" font-size="9" font-weight="bold">What Changes</text>
  <text x="450" y="925" fill="white" font-size="9" font-weight="bold">Cost</text>
  <text x="550" y="925" fill="white" font-size="9" font-weight="bold">Threshold</text>
  <text x="95" y="943" fill="#333" font-size="9">1-2</text>
  <text x="180" y="943" fill="#636e72" font-size="9">Game mechanics, agent behavior</text>
  <text x="450" y="943" fill="#636e72" font-size="9">1 token</text>
  <text x="550" y="943" fill="#636e72" font-size="9">50%</text>
  <text x="95" y="957" fill="#333" font-size="9">3-4</text>
  <text x="180" y="957" fill="#636e72" font-size="9">League structure, meta-governance</text>
  <text x="450" y="957" fill="#636e72" font-size="9">1 token</text>
  <text x="550" y="957" fill="#636e72" font-size="9">60%</text>
  <text x="95" y="971" fill="#333" font-size="9">5+</text>
  <text x="180" y="971" fill="#636e72" font-size="9">Uninterpretable or novel (wild)</text>
  <text x="450" y="971" fill="#636e72" font-size="9">2 tokens</text>
  <text x="550" y="971" fill="#636e72" font-size="9">67%</text>

  <!-- Ties note -->
  <rect x="700" y="885" width="300" height="45" rx="6" fill="#ffeaa7" stroke="#fdcb6e"/>
  <text x="850" y="905" text-anchor="middle" fill="#2d3436" font-size="10" font-weight="bold">Ties fail.</text>
  <text x="850" y="921" text-anchor="middle" fill="#636e72" font-size="10">Threshold is strictly greater-than.</text>

  <!-- ============================================================ -->
  <!-- TOKENS -->
  <!-- ============================================================ -->
  <rect x="50" y="995" width="1300" height="30" rx="4" fill="#2d3436"/>
  <text x="70" y="1015" fill="white" font-size="13" font-weight="bold">TOKENS</text>

  <rect x="70" y="1040" width="250" height="80" rx="8" fill="#d63031" filter="url(#shadow)"/>
  <text x="195" y="1063" text-anchor="middle" fill="white" font-size="12" font-weight="bold">PROPOSE</text>
  <text x="195" y="1081" text-anchor="middle" fill="#dfe6e9" font-size="10">Submit a rule change</text>
  <text x="195" y="1098" text-anchor="middle" fill="#fab1a0" font-size="10">Regenerates: +2 per tally</text>

  <rect x="360" y="1040" width="250" height="80" rx="8" fill="#d63031" filter="url(#shadow)"/>
  <text x="485" y="1063" text-anchor="middle" fill="white" font-size="12" font-weight="bold">AMEND</text>
  <text x="485" y="1081" text-anchor="middle" fill="#dfe6e9" font-size="10">Modify someone else's proposal</text>
  <text x="485" y="1098" text-anchor="middle" fill="#fab1a0" font-size="10">Regenerates: +2 per tally</text>

  <rect x="650" y="1040" width="250" height="80" rx="8" fill="#d63031" filter="url(#shadow)"/>
  <text x="775" y="1063" text-anchor="middle" fill="white" font-size="12" font-weight="bold">BOOST</text>
  <text x="775" y="1081" text-anchor="middle" fill="#dfe6e9" font-size="10">Double your vote weight once</text>
  <text x="775" y="1098" text-anchor="middle" fill="#fab1a0" font-size="10">Granted on join. Does not regenerate at tally.</text>

  <rect x="940" y="1040" width="310" height="80" rx="8" fill="white" stroke="#0984e3" stroke-width="2" filter="url(#shadow)"/>
  <text x="1095" y="1063" text-anchor="middle" fill="#0984e3" font-size="12" font-weight="bold">/trade @USER TOKENS</text>
  <text x="1095" y="1081" text-anchor="middle" fill="#636e72" font-size="10">Tokens are tradeable between players.</text>
  <text x="1095" y="1098" text-anchor="middle" fill="#636e72" font-size="10">The AI may notice patterns.</text>

  <!-- ============================================================ -->
  <!-- THE REPORTER (AI) -->
  <!-- ============================================================ -->
  <rect x="50" y="1145" width="1300" height="30" rx="4" fill="#2d3436"/>
  <text x="70" y="1165" fill="white" font-size="13" font-weight="bold">THE REPORTER (AI)</text>
  <text x="1320" y="1165" fill="#b2bec3" font-size="10" text-anchor="end">Describe, never prescribe.</text>

  <rect x="70" y="1190" width="370" height="75" rx="8" fill="#6c5ce7" filter="url(#shadow)"/>
  <text x="255" y="1213" text-anchor="middle" fill="white" font-size="12" font-weight="bold">Simulation Report (public)</text>
  <text x="255" y="1231" text-anchor="middle" fill="#dfe6e9" font-size="10">What happened in the games.</text>
  <text x="255" y="1248" text-anchor="middle" fill="#dfe6e9" font-size="10">Statistical patterns. Effects of rule changes.</text>

  <rect x="470" y="1190" width="370" height="75" rx="8" fill="#6c5ce7" filter="url(#shadow)"/>
  <text x="655" y="1213" text-anchor="middle" fill="white" font-size="12" font-weight="bold">Governance Report (public)</text>
  <text x="655" y="1231" text-anchor="middle" fill="#dfe6e9" font-size="10">Voting trends. Coalition formation.</text>
  <text x="655" y="1248" text-anchor="middle" fill="#dfe6e9" font-size="10">Who is proposing what and why it matters.</text>

  <rect x="870" y="1190" width="380" height="75" rx="8" fill="#6c5ce7" filter="url(#shadow)"/>
  <text x="1060" y="1213" text-anchor="middle" fill="white" font-size="12" font-weight="bold">Private Report (DM to you)</text>
  <text x="1060" y="1231" text-anchor="middle" fill="#dfe6e9" font-size="10">Your governance behavior reflected back.</text>
  <text x="1060" y="1248" text-anchor="middle" fill="#dfe6e9" font-size="10">Patterns you might not see. Never prescribes.</text>

  <!-- Commentary note -->
  <rect x="70" y="1278" width="500" height="30" rx="6" fill="white" stroke="#6c5ce7" stroke-width="1.5"/>
  <text x="90" y="1297" fill="#6c5ce7" font-size="10">The AI also writes game commentary in a sports-journalist voice.</text>

  <!-- ============================================================ -->
  <!-- THE ADMIN -->
  <!-- ============================================================ -->
  <rect x="50" y="1325" width="1300" height="30" rx="4" fill="#2d3436"/>
  <text x="70" y="1345" fill="white" font-size="13" font-weight="bold">THE ADMIN</text>
  <text x="1320" y="1345" fill="#b2bec3" font-size="10" text-anchor="end">Safety valve, not gatekeeper.</text>

  <rect x="70" y="1370" width="1180" height="80" rx="8" fill="white" stroke="#636e72" filter="url(#shadow)"/>
  <text x="90" y="1393" fill="#333" font-size="11">Starts and ends seasons.</text>
  <text x="90" y="1413" fill="#333" font-size="11">Receives DM notifications when wild proposals are submitted. Can <tspan font-weight="bold">veto</tspan> before tally (refunds tokens) or <tspan font-weight="bold">clear</tspan> to confirm review.</text>
  <text x="90" y="1433" fill="#636e72" font-size="11">If the admin does nothing, voting proceeds normally. The democratic process does not require admin permission.</text>

  <!-- ============================================================ -->
  <!-- FOOTER -->
  <!-- ============================================================ -->
  <rect x="0" y="1465" width="1400" height="35" fill="#2d3436"/>
  <text x="700" y="1482" text-anchor="middle" fill="#dfe6e9" font-size="11">Pinwheel Fates -- Built on the principles of Resonant Computing</text>
  <text x="700" y="1496" text-anchor="middle" fill="#b2bec3" font-size="9">Private . Dedicated . Plural . Adaptable . Prosocial</text>
</svg>
